<?xml version="1.0" encoding="UTF-8" standalone="no"?>
<!DOCTYPE svg PUBLIC "-//W3C//DTD SVG 1.1//EN"
 "http://www.w3.org/Graphics/SVG/1.1/DTD/svg11.dtd">
<!-- Generated by graphviz version 2.43.0 (0)
 -->
<!-- Title: TaskJourney Pages: 1 -->
<svg width="1063pt" height="644pt"
 viewBox="0.00 0.00 1063.00 644.00" xmlns="http://www.w3.org/2000/svg" xmlns:xlink="http://www.w3.org/1999/xlink">
<g id="graph0" class="graph" transform="scale(1 1) rotate(0) translate(4 640)">
<title>TaskJourney</title>
<polygon fill="white" stroke="transparent" points="-4,4 -4,-640 1059,-640 1059,4 -4,4"/>
<text text-anchor="middle" x="527.5" y="-624" font-family="Times,serif" font-size="10.00">weave repro</text>
<!-- JourneyRunner.run -->
<g id="node1" class="node">
<title>JourneyRunner.run</title>
<polygon fill="none" stroke="black" points="811,-617 757,-617 757,-581 811,-581 811,-617"/>
<text text-anchor="middle" x="784" y="-596.2" font-family="Helvetica,sans-Serif" font-size="11.00">JR.run</text>
</g>
<!-- ToolRunner.run -->
<g id="node2" class="node">
<title>ToolRunner.run</title>
<polygon fill="none" stroke="black" points="636,-534 582,-534 582,-498 636,-498 636,-534"/>
<text text-anchor="middle" x="609" y="-513.2" font-family="Helvetica,sans-Serif" font-size="11.00">TR.run</text>
</g>
<!-- JourneyRunner.run&#45;&gt;ToolRunner.run -->
<g id="edge1" class="edge">
<title>JourneyRunner.run&#45;&gt;ToolRunner.run</title>
<path fill="none" stroke="black" d="M756.66,-585.34C726.73,-571.49 678.62,-549.22 645.49,-533.89"/>
<polygon fill="black" stroke="black" points="646.7,-530.59 636.15,-529.57 643.76,-536.94 646.7,-530.59"/>
<text text-anchor="middle" x="728.5" y="-555" font-family="Helvetica,sans-Serif" font-size="10.00">tools.run</text>
</g>
<!-- JourneyRunState.end -->
<g id="node18" class="node">
<title>JourneyRunState.end</title>
<polygon fill="none" stroke="black" points="735,-119 681,-119 681,-83 735,-83 735,-119"/>
<text text-anchor="middle" x="708" y="-98.2" font-family="Helvetica,sans-Serif" font-size="11.00">end</text>
</g>
<!-- JourneyRunner.run&#45;&gt;JourneyRunState.end -->
<g id="edge28" class="edge">
<title>JourneyRunner.run&#45;&gt;JourneyRunState.end</title>
<path fill="none" stroke="black" d="M807.03,-580.74C823.95,-565.93 844,-542.9 844,-517 844,-517 844,-517 844,-183 844,-136.86 785.51,-116.4 745.24,-107.78"/>
<polygon fill="black" stroke="black" points="745.68,-104.3 735.19,-105.79 744.32,-111.17 745.68,-104.3"/>
<text text-anchor="middle" x="885" y="-347.5" font-family="Helvetica,sans-Serif" font-size="10.00">passed / blocked</text>
</g>
<!-- StepRunner.run -->
<g id="node3" class="node">
<title>StepRunner.run</title>
<polygon fill="none" stroke="black" points="509,-451 455,-451 455,-415 509,-415 509,-451"/>
<text text-anchor="middle" x="482" y="-430.2" font-family="Helvetica,sans-Serif" font-size="11.00">SR.run</text>
</g>
<!-- ToolRunner.run&#45;&gt;StepRunner.run -->
<g id="edge2" class="edge">
<title>ToolRunner.run&#45;&gt;StepRunner.run</title>
<path fill="none" stroke="black" d="M582.07,-497.82C563.21,-485.79 537.82,-469.6 517.34,-456.54"/>
<polygon fill="black" stroke="black" points="519.21,-453.58 508.89,-451.15 515.44,-459.48 519.21,-453.58"/>
<text text-anchor="middle" x="563.5" y="-472" font-family="Helvetica,sans-Serif" font-size="10.00">first</text>
</g>
<!-- ToolRunner.resolve -->
<g id="node13" class="node">
<title>ToolRunner.resolve</title>
<polygon fill="none" stroke="black" points="646.5,-451 571.5,-451 571.5,-415 646.5,-415 646.5,-451"/>
<text text-anchor="middle" x="609" y="-430.2" font-family="Helvetica,sans-Serif" font-size="11.00">TR.resolve</text>
</g>
<!-- ToolRunner.run&#45;&gt;ToolRunner.resolve -->
<g id="edge18" class="edge">
<title>ToolRunner.run&#45;&gt;ToolRunner.resolve</title>
<path fill="none" stroke="black" d="M609,-497.82C609,-487.19 609,-473.31 609,-461.2"/>
<polygon fill="black" stroke="black" points="612.5,-461.15 609,-451.15 605.5,-461.15 612.5,-461.15"/>
<text text-anchor="middle" x="655.5" y="-472" font-family="Helvetica,sans-Serif" font-size="10.00">resolve(evaluated)</text>
</g>
<!-- resolve_abstract_action -->
<g id="node4" class="node">
<title>resolve_abstract_action</title>
<polygon fill="none" stroke="black" points="440.5,-368 381.5,-368 381.5,-332 440.5,-332 440.5,-368"/>
<text text-anchor="middle" x="411" y="-347.2" font-family="Helvetica,sans-Serif" font-size="11.00">abs_act</text>
</g>
<!-- StepRunner.run&#45;&gt;resolve_abstract_action -->
<g id="edge3" class="edge">
<title>StepRunner.run&#45;&gt;resolve_abstract_action</title>
<path fill="none" stroke="black" d="M466.94,-414.82C457.06,-403.55 443.97,-388.61 432.93,-376.02"/>
<polygon fill="black" stroke="black" points="435.26,-373.37 426.04,-368.15 430,-377.98 435.26,-373.37"/>
<text text-anchor="middle" x="468.5" y="-389" font-family="Helvetica,sans-Serif" font-size="10.00">always</text>
</g>
<!-- runAbstractSequence -->
<g id="node5" class="node">
<title>runAbstractSequence</title>
<polygon fill="none" stroke="black" points="324.5,-285 249.5,-285 249.5,-249 324.5,-249 324.5,-285"/>
<text text-anchor="middle" x="287" y="-264.2" font-family="Helvetica,sans-Serif" font-size="11.00">runAbsSeq</text>
</g>
<!-- resolve_abstract_action&#45;&gt;runAbstractSequence -->
<g id="edge4" class="edge">
<title>resolve_abstract_action&#45;&gt;runAbstractSequence</title>
<path fill="none" stroke="black" d="M384.7,-331.82C366.37,-319.85 341.73,-303.75 321.77,-290.71"/>
<polygon fill="black" stroke="black" points="323.55,-287.69 313.26,-285.15 319.72,-293.55 323.55,-287.69"/>
<text text-anchor="middle" x="368" y="-306" font-family="Helvetica,sans-Serif" font-size="10.00">next</text>
</g>
<!-- resolve_sequence -->
<g id="node6" class="node">
<title>resolve_sequence</title>
<polygon fill="none" stroke="black" points="563.5,-202 504.5,-202 504.5,-166 563.5,-166 563.5,-202"/>
<text text-anchor="middle" x="534" y="-181.2" font-family="Helvetica,sans-Serif" font-size="11.00">res_seq</text>
</g>
<!-- runAbstractSequence&#45;&gt;resolve_sequence -->
<g id="edge5" class="edge">
<title>runAbstractSequence&#45;&gt;resolve_sequence</title>
<path fill="none" stroke="black" d="M324.61,-265.81C366.22,-264.19 434.22,-257.25 486,-231 496.19,-225.83 505.68,-217.78 513.48,-209.85"/>
<polygon fill="black" stroke="black" points="516.46,-211.79 520.69,-202.07 511.33,-207.03 516.46,-211.79"/>
<text text-anchor="middle" x="524" y="-223" font-family="Helvetica,sans-Serif" font-size="10.00">authored</text>
</g>
<!-- report_defect -->
<g id="node7" class="node">
<title>report_defect</title>
<polygon fill="none" stroke="black" points="350,-202 296,-202 296,-166 350,-166 350,-202"/>
<text text-anchor="middle" x="323" y="-181.2" font-family="Helvetica,sans-Serif" font-size="11.00">defect</text>
</g>
<!-- runAbstractSequence&#45;&gt;report_defect -->
<g id="edge7" class="edge">
<title>runAbstractSequence&#45;&gt;report_defect</title>
<path fill="none" stroke="black" d="M279.78,-248.7C277.16,-239.76 275.77,-228.9 280,-220 282.11,-215.56 285.09,-211.5 288.51,-207.84"/>
<polygon fill="black" stroke="black" points="291.04,-210.27 296,-200.91 286.28,-205.13 291.04,-210.27"/>
<text text-anchor="middle" x="298.5" y="-223" font-family="Helvetica,sans-Serif" font-size="10.00">seq fail</text>
</g>
<!-- runEmailStep -->
<g id="node8" class="node">
<title>runEmailStep</title>
<polygon fill="none" stroke="black" points="150.5,-202 85.5,-202 85.5,-166 150.5,-166 150.5,-202"/>
<text text-anchor="middle" x="118" y="-181.2" font-family="Helvetica,sans-Serif" font-size="11.00">runEmail</text>
</g>
<!-- runAbstractSequence&#45;&gt;runEmailStep -->
<g id="edge9" class="edge">
<title>runAbstractSequence&#45;&gt;runEmailStep</title>
<path fill="none" stroke="black" d="M249.12,-263.47C204.77,-259.62 135.28,-250.59 119,-231 114.71,-225.84 113.13,-219.11 112.94,-212.4"/>
<polygon fill="black" stroke="black" points="116.45,-212.31 113.6,-202.1 109.47,-211.86 116.45,-212.31"/>
<text text-anchor="middle" x="140.5" y="-223" font-family="Helvetica,sans-Serif" font-size="10.00">continue</text>
</g>
<!-- resolve_sequence&#45;&gt;runAbstractSequence -->
<g id="edge6" class="edge">
<title>resolve_sequence&#45;&gt;runAbstractSequence</title>
<path fill="none" stroke="black" d="M504.32,-187.77C426.77,-195.09 223.75,-214.7 219,-220 207.75,-232.57 221.44,-243.35 239.41,-251.31"/>
<polygon fill="black" stroke="black" points="238.51,-254.72 249.09,-255.21 241.12,-248.23 238.51,-254.72"/>
<text text-anchor="middle" x="246.5" y="-223" font-family="Helvetica,sans-Serif" font-size="10.00">loop / done</text>
</g>
<!-- recoverStep -->
<g id="node14" class="node">
<title>recoverStep</title>
<polygon fill="none" stroke="black" points="556.5,-285 497.5,-285 497.5,-249 556.5,-249 556.5,-285"/>
<text text-anchor="middle" x="527" y="-264.2" font-family="Helvetica,sans-Serif" font-size="11.00">recover</text>
</g>
<!-- resolve_sequence&#45;&gt;recoverStep -->
<g id="edge21" class="edge">
<title>resolve_sequence&#45;&gt;recoverStep</title>
<path fill="none" stroke="black" d="M504.49,-187.79C449.22,-193.31 334.62,-206.3 323,-220 300.88,-246.09 421.83,-258.69 487.23,-263.53"/>
<polygon fill="black" stroke="black" points="487,-267.02 497.22,-264.24 487.5,-260.04 487,-267.02"/>
<text text-anchor="middle" x="343" y="-223" font-family="Helvetica,sans-Serif" font-size="10.00">act loop</text>
</g>
<!-- report_defect&#45;&gt;runAbstractSequence -->
<g id="edge8" class="edge">
<title>report_defect&#45;&gt;runAbstractSequence</title>
<path fill="none" stroke="black" d="M350.25,-186.2C392.85,-189.07 467.79,-198.73 442,-231 428.7,-247.64 375.05,-256.94 334.57,-261.7"/>
<polygon fill="black" stroke="black" points="334.14,-258.23 324.59,-262.81 334.92,-265.18 334.14,-258.23"/>
<text text-anchor="middle" x="465" y="-223" font-family="Helvetica,sans-Serif" font-size="10.00">verdict</text>
</g>
<!-- resolve_email -->
<g id="node9" class="node">
<title>resolve_email</title>
<polygon fill="none" stroke="black" points="152.5,-119 83.5,-119 83.5,-83 152.5,-83 152.5,-119"/>
<text text-anchor="middle" x="118" y="-98.2" font-family="Helvetica,sans-Serif" font-size="11.00">res_email</text>
</g>
<!-- runEmailStep&#45;&gt;resolve_email -->
<g id="edge10" class="edge">
<title>runEmailStep&#45;&gt;resolve_email</title>
<path fill="none" stroke="black" d="M118,-165.82C118,-155.19 118,-141.31 118,-129.2"/>
<polygon fill="black" stroke="black" points="121.5,-129.15 118,-119.15 114.5,-129.15 121.5,-129.15"/>
<text text-anchor="middle" x="160.5" y="-140" font-family="Helvetica,sans-Serif" font-size="10.00">awaitEmail+mail</text>
</g>
<!-- resolve_missing_email -->
<g id="node10" class="node">
<title>resolve_missing_email</title>
<polygon fill="none" stroke="black" points="264.5,-119 187.5,-119 187.5,-83 264.5,-83 264.5,-119"/>
<text text-anchor="middle" x="226" y="-98.2" font-family="Helvetica,sans-Serif" font-size="11.00">miss_email</text>
</g>
<!-- runEmailStep&#45;&gt;resolve_missing_email -->
<g id="edge11" class="edge">
<title>runEmailStep&#45;&gt;resolve_missing_email</title>
<path fill="none" stroke="black" d="M150.57,-175.86C168.15,-170.62 189.22,-161.93 204,-148 209.67,-142.66 214.04,-135.55 217.34,-128.53"/>
<polygon fill="black" stroke="black" points="220.62,-129.75 221.19,-119.17 214.14,-127.09 220.62,-129.75"/>
<text text-anchor="middle" x="244" y="-140" font-family="Helvetica,sans-Serif" font-size="10.00">empty inbox</text>
</g>
<!-- evaluateChecks -->
<g id="node11" class="node">
<title>evaluateChecks</title>
<polygon fill="none" stroke="black" points="60,-119 0,-119 0,-83 60,-83 60,-119"/>
<text text-anchor="middle" x="30" y="-98.2" font-family="Helvetica,sans-Serif" font-size="11.00">evalChk</text>
</g>
<!-- runEmailStep&#45;&gt;evaluateChecks -->
<g id="edge14" class="edge">
<title>runEmailStep&#45;&gt;evaluateChecks</title>
<path fill="none" stroke="black" d="M85.36,-172.11C72.67,-166.54 58.85,-158.65 49,-148 44.03,-142.63 40.27,-135.78 37.47,-129.02"/>
<polygon fill="black" stroke="black" points="40.67,-127.59 34,-119.36 34.08,-129.95 40.67,-127.59"/>
<text text-anchor="middle" x="81.5" y="-140" font-family="Helvetica,sans-Serif" font-size="10.00">!email / done</text>
</g>
<!-- resolve_email&#45;&gt;runEmailStep -->
<g id="edge12" class="edge">
<title>resolve_email&#45;&gt;runEmailStep</title>
<path fill="none" stroke="black" d="M152.72,-112.6C160.96,-114.9 169.75,-117.19 178,-119 203.05,-124.51 275.34,-117.5 292,-137 295.18,-140.72 295.1,-144.22 292,-148 275.71,-167.89 206.72,-176.72 160.66,-180.46"/>
<polygon fill="black" stroke="black" points="160.34,-176.97 150.63,-181.22 160.87,-183.95 160.34,-176.97"/>
<text text-anchor="middle" x="312" y="-140" font-family="Helvetica,sans-Serif" font-size="10.00">judged</text>
</g>
<!-- resolve_missing_email&#45;&gt;runEmailStep -->
<g id="edge13" class="edge">
<title>resolve_missing_email&#45;&gt;runEmailStep</title>
<path fill="none" stroke="black" d="M264.79,-103.04C386.78,-106.51 755.63,-118.48 773,-137 776.34,-140.57 776.39,-144.48 773,-148 754.25,-167.46 313.95,-164.15 287,-166 243.94,-168.96 194.88,-174.09 160.75,-177.95"/>
<polygon fill="black" stroke="black" points="160.2,-174.49 150.66,-179.1 160.99,-181.44 160.2,-174.49"/>
<text text-anchor="middle" x="793" y="-140" font-family="Helvetica,sans-Serif" font-size="10.00">judged</text>
</g>
<!-- evaluateChecks&#45;&gt;ToolRunner.run -->
<g id="edge17" class="edge">
<title>evaluateChecks&#45;&gt;ToolRunner.run</title>
<path fill="none" stroke="black" d="M60.37,-115.28C64.87,-116.79 69.5,-118.1 74,-119 114.33,-127.03 777.57,-117.91 814,-137 910.03,-187.31 1018.83,-327.83 970,-397 895.27,-502.85 722.56,-515.73 646.32,-515.99"/>
<polygon fill="black" stroke="black" points="646.24,-512.49 636.22,-515.96 646.21,-519.49 646.24,-512.49"/>
<text text-anchor="middle" x="1014" y="-306" font-family="Helvetica,sans-Serif" font-size="10.00">return evaluated</text>
</g>
<!-- resolve_abstract_check -->
<g id="node12" class="node">
<title>resolve_abstract_check</title>
<polygon fill="none" stroke="black" points="60,-36 0,-36 0,0 60,0 60,-36"/>
<text text-anchor="middle" x="30" y="-15.2" font-family="Helvetica,sans-Serif" font-size="11.00">abs_chk</text>
</g>
<!-- evaluateChecks&#45;&gt;resolve_abstract_check -->
<g id="edge15" class="edge">
<title>evaluateChecks&#45;&gt;resolve_abstract_check</title>
<path fill="none" stroke="black" d="M30,-82.82C30,-72.19 30,-58.31 30,-46.2"/>
<polygon fill="black" stroke="black" points="33.5,-46.15 30,-36.15 26.5,-46.15 33.5,-46.15"/>
<text text-anchor="middle" x="50" y="-57" font-family="Helvetica,sans-Serif" font-size="10.00">abstract</text>
</g>
<!-- resolve_abstract_check&#45;&gt;evaluateChecks -->
<g id="edge16" class="edge">
<title>resolve_abstract_check&#45;&gt;evaluateChecks</title>
<path fill="none" stroke="black" d="M59.35,-36.18C68.93,-44.14 75.97,-54.22 71,-65 69.29,-68.72 66.96,-72.19 64.28,-75.39"/>
<polygon fill="black" stroke="black" points="61.55,-73.17 57.04,-82.76 66.55,-78.07 61.55,-73.17"/>
<text text-anchor="middle" x="90" y="-57" font-family="Helvetica,sans-Serif" font-size="10.00">judged</text>
</g>
<!-- ToolRunner.resolve&#45;&gt;recoverStep -->
<g id="edge19" class="edge">
<title>ToolRunner.resolve&#45;&gt;recoverStep</title>
<path fill="none" stroke="black" d="M580.57,-414.94C564.6,-403.73 545.93,-387.53 536,-368 524.56,-345.51 523.18,-316.47 524.14,-295.49"/>
<polygon fill="black" stroke="black" points="527.65,-295.54 524.82,-285.33 520.66,-295.08 527.65,-295.54"/>
<text text-anchor="middle" x="571" y="-347.5" font-family="Helvetica,sans-Serif" font-size="10.00">need recovery</text>
</g>
<!-- preJudgeStep -->
<g id="node15" class="node">
<title>preJudgeStep</title>
<polygon fill="none" stroke="black" points="680.5,-368 615.5,-368 615.5,-332 680.5,-332 680.5,-368"/>
<text text-anchor="middle" x="648" y="-347.2" font-family="Helvetica,sans-Serif" font-size="11.00">preJudge</text>
</g>
<!-- ToolRunner.resolve&#45;&gt;preJudgeStep -->
<g id="edge23" class="edge">
<title>ToolRunner.resolve&#45;&gt;preJudgeStep</title>
<path fill="none" stroke="black" d="M617.27,-414.82C622.49,-403.98 629.35,-389.74 635.25,-377.47"/>
<polygon fill="black" stroke="black" points="638.56,-378.68 639.74,-368.15 632.25,-375.64 638.56,-378.68"/>
<text text-anchor="middle" x="676" y="-389" font-family="Helvetica,sans-Serif" font-size="10.00">no recovery / after</text>
</g>
<!-- recoverStep&#45;&gt;resolve_sequence -->
<g id="edge20" class="edge">
<title>recoverStep&#45;&gt;resolve_sequence</title>
<path fill="none" stroke="black" d="M552.35,-248.91C557.87,-243.85 562.96,-237.81 566,-231 569.18,-223.88 567.23,-216.71 563.05,-210.22"/>
<polygon fill="black" stroke="black" points="565.77,-208.02 556.79,-202.41 560.32,-212.4 565.77,-208.02"/>
<text text-anchor="middle" x="586.5" y="-223" font-family="Helvetica,sans-Serif" font-size="10.00">recover</text>
</g>
<!-- recoverStep&#45;&gt;report_defect -->
<g id="edge22" class="edge">
<title>recoverStep&#45;&gt;report_defect</title>
<path fill="none" stroke="black" d="M497.43,-262.6C467.22,-258.29 419.55,-249.12 382,-231 370.12,-225.27 358.38,-216.84 348.54,-208.77"/>
<polygon fill="black" stroke="black" points="350.64,-205.96 340.76,-202.13 346.09,-211.28 350.64,-205.96"/>
<text text-anchor="middle" x="410" y="-223" font-family="Helvetica,sans-Serif" font-size="10.00">recover fail</text>
</g>
<!-- runRequirementsJudge -->
<g id="node16" class="node">
<title>runRequirementsJudge</title>
<polygon fill="none" stroke="black" points="680.5,-285 615.5,-285 615.5,-249 680.5,-249 680.5,-285"/>
<text text-anchor="middle" x="648" y="-264.2" font-family="Helvetica,sans-Serif" font-size="11.00">reqJudge</text>
</g>
<!-- preJudgeStep&#45;&gt;runRequirementsJudge -->
<g id="edge24" class="edge">
<title>preJudgeStep&#45;&gt;runRequirementsJudge</title>
<path fill="none" stroke="black" d="M648,-331.82C648,-321.19 648,-307.31 648,-295.2"/>
<polygon fill="black" stroke="black" points="651.5,-295.15 648,-285.15 644.5,-295.15 651.5,-295.15"/>
<text text-anchor="middle" x="677" y="-306" font-family="Helvetica,sans-Serif" font-size="10.00">pendingBug</text>
</g>
<!-- runRequirementsJudge&#45;&gt;ToolRunner.run -->
<g id="edge26" class="edge">
<title>runRequirementsJudge&#45;&gt;ToolRunner.run</title>
<path fill="none" stroke="black" d="M680.63,-267.53C766.2,-267.56 986.67,-276.31 930,-368 926.34,-373.92 712.39,-477.26 706,-480 686.42,-488.39 664.09,-496.54 645.8,-502.86"/>
<polygon fill="black" stroke="black" points="644.42,-499.63 636.09,-506.18 646.69,-506.26 644.42,-499.63"/>
<text text-anchor="middle" x="934" y="-389" font-family="Helvetica,sans-Serif" font-size="10.00">reject → &#39;retry&#39;</text>
</g>
<!-- finishStep -->
<g id="node17" class="node">
<title>finishStep</title>
<polygon fill="none" stroke="black" points="649,-202 595,-202 595,-166 649,-166 649,-202"/>
<text text-anchor="middle" x="622" y="-181.2" font-family="Helvetica,sans-Serif" font-size="11.00">finish</text>
</g>
<!-- runRequirementsJudge&#45;&gt;finishStep -->
<g id="edge25" class="edge">
<title>runRequirementsJudge&#45;&gt;finishStep</title>
<path fill="none" stroke="black" d="M642.49,-248.82C639.04,-238.08 634.53,-224.03 630.61,-211.84"/>
<polygon fill="black" stroke="black" points="633.89,-210.61 627.51,-202.15 627.23,-212.74 633.89,-210.61"/>
<text text-anchor="middle" x="690" y="-223" font-family="Helvetica,sans-Serif" font-size="10.00">approved / exhausted</text>
</g>
<!-- finishStep&#45;&gt;JourneyRunState.end -->
<g id="edge27" class="edge">
<title>finishStep&#45;&gt;JourneyRunState.end</title>
<path fill="none" stroke="black" d="M594.94,-170.91C579.19,-162.17 564.19,-149.7 574,-137 585.77,-121.76 635.28,-111.89 670.69,-106.63"/>
<polygon fill="black" stroke="black" points="671.3,-110.08 680.71,-105.21 670.32,-103.15 671.3,-110.08"/>
<text text-anchor="middle" x="673.5" y="-140" font-family="Helvetica,sans-Serif" font-size="10.00">stopForBug / unperformable / unhealable</text>
</g>
</g>
</svg>
