<?xml version="1.0" encoding="UTF-8" standalone="no"?>
<!DOCTYPE svg PUBLIC "-//W3C//DTD SVG 1.1//EN"
 "http://www.w3.org/Graphics/SVG/1.1/DTD/svg11.dtd">
<!-- Generated by graphviz version 16.1.1~dev.20260925.1638 (20260925.1638)
 -->
<!-- Title: FlipFreeLThenR Pages: 1 -->
<svg width="297pt" height="320pt"
 viewBox="0.00 0.00 297.00 320.00" xmlns="http://www.w3.org/2000/svg" xmlns:xlink="http://www.w3.org/1999/xlink">
<g id="graph0" class="graph" transform="scale(1 1) rotate(0) translate(4 316)">
<title>FlipFreeLThenR</title>
<polygon fill="white" stroke="none" points="-4,4 -4,-316 293.25,-316 293.25,4 -4,4"/>
<!-- Top -->
<g id="node1" class="node">
<title>Top</title>
<polygon fill="none" stroke="black" points="170.75,-312 116.75,-312 116.75,-276 170.75,-276 170.75,-312"/>
<text xml:space="preserve" text-anchor="middle" x="143.75" y="-289.32" font-family="Times,serif" font-size="14.00">Top</text>
</g>
<!-- MidA -->
<g id="node2" class="node">
<title>MidA</title>
<polygon fill="none" stroke="black" points="170.75,-243 116.75,-243 116.75,-207 170.75,-207 170.75,-243"/>
<text xml:space="preserve" text-anchor="middle" x="143.75" y="-220.32" font-family="Times,serif" font-size="14.00">MidA</text>
</g>
<!-- Top&#45;&gt;MidA -->
<g id="edge1" class="edge">
<title>Top&#45;&gt;MidA</title>
<path fill="none" stroke="black" d="M143.75,-275.75C143.75,-269.39 143.75,-262 143.75,-254.89"/>
<polygon fill="black" stroke="black" points="147.25,-254.94 143.75,-244.94 140.25,-254.94 147.25,-254.94"/>
</g>
<!-- Gap -->
<g id="node3" class="node">
<title>Gap</title>
<polygon fill="none" stroke="black" points="170.75,-174 116.75,-174 116.75,-138 170.75,-138 170.75,-174"/>
<text xml:space="preserve" text-anchor="middle" x="143.75" y="-151.32" font-family="Times,serif" font-size="14.00">Gap</text>
</g>
<!-- MidA&#45;&gt;Gap -->
<g id="edge2" class="edge">
<title>MidA&#45;&gt;Gap</title>
<path fill="none" stroke="black" d="M143.75,-206.75C143.75,-200.39 143.75,-193 143.75,-185.89"/>
<polygon fill="black" stroke="black" points="147.25,-185.94 143.75,-175.94 140.25,-185.94 147.25,-185.94"/>
</g>
<!-- NoteR -->
<g id="node6" class="node">
<title>NoteR</title>
<polygon fill="none" stroke="black" points="283.25,-243 228.25,-243 228.25,-207 289.25,-207 289.25,-237 283.25,-243"/>
<polyline fill="none" stroke="black" points="283.25,-243 283.25,-237"/>
<polyline fill="none" stroke="black" points="289.25,-237 283.25,-237"/>
<text xml:space="preserve" text-anchor="middle" x="258.75" y="-220.32" font-family="Times,serif" font-size="14.00">NoteR</text>
</g>
<!-- MidA&#45;&gt;NoteR -->
<g id="edge6" class="edge">
<title>MidA&#45;&gt;NoteR</title>
<path fill="none" stroke="black" stroke-dasharray="1,5" d="M171.2,-225C177.35,-225 182.08,-225 182.08,-225 182.08,-225 220.42,-225 220.42,-225 220.42,-225 223.45,-225 227.81,-225"/>
</g>
<!-- MidB -->
<g id="node4" class="node">
<title>MidB</title>
<polygon fill="none" stroke="black" points="170.88,-105 116.62,-105 116.62,-69 170.88,-69 170.88,-105"/>
<text xml:space="preserve" text-anchor="middle" x="143.75" y="-82.33" font-family="Times,serif" font-size="14.00">MidB</text>
</g>
<!-- Gap&#45;&gt;MidB -->
<g id="edge3" class="edge">
<title>Gap&#45;&gt;MidB</title>
<path fill="none" stroke="black" d="M143.75,-137.75C143.75,-131.39 143.75,-124 143.75,-116.89"/>
<polygon fill="black" stroke="black" points="147.25,-116.94 143.75,-106.94 140.25,-116.94 147.25,-116.94"/>
</g>
<!-- Bot -->
<g id="node5" class="node">
<title>Bot</title>
<polygon fill="none" stroke="black" points="170.75,-36 116.75,-36 116.75,0 170.75,0 170.75,-36"/>
<text xml:space="preserve" text-anchor="middle" x="143.75" y="-13.32" font-family="Times,serif" font-size="14.00">Bot</text>
</g>
<!-- MidB&#45;&gt;Bot -->
<g id="edge4" class="edge">
<title>MidB&#45;&gt;Bot</title>
<path fill="none" stroke="black" d="M143.75,-68.75C143.75,-62.39 143.75,-55 143.75,-47.89"/>
<polygon fill="black" stroke="black" points="147.25,-47.94 143.75,-37.94 140.25,-47.94 147.25,-47.94"/>
</g>
<!-- Bot&#45;&gt;Top -->
<g id="edge5" class="edge">
<title>Bot&#45;&gt;Top</title>
<path fill="none" stroke="black" d="M158.44,-36.49C170.55,-50.91 185.75,-69 185.75,-69 185.75,-69 185.75,-174 185.75,-174 185.75,-174 102.75,-207 102.75,-207 102.75,-207 102.75,-243 102.75,-243 102.75,-243 112.36,-254.72 122.27,-266.81"/>
<polygon fill="black" stroke="black" points="119.4,-268.83 128.45,-274.34 124.82,-264.39 119.4,-268.83"/>
<text xml:space="preserve" text-anchor="middle" x="202.25" y="-151.32" font-family="Times,serif" font-size="14.00">back</text>
</g>
<!-- NoteL -->
<g id="node7" class="node">
<title>NoteL</title>
<polygon fill="none" stroke="black" points="53.5,-105 0,-105 0,-69 59.5,-69 59.5,-99 53.5,-105"/>
<polyline fill="none" stroke="black" points="53.5,-105 53.5,-99"/>
<polyline fill="none" stroke="black" points="59.5,-99 53.5,-99"/>
<text xml:space="preserve" text-anchor="middle" x="29.75" y="-82.33" font-family="Times,serif" font-size="14.00">NoteL</text>
</g>
<!-- NoteL&#45;&gt;MidB -->
<g id="edge7" class="edge">
<title>NoteL&#45;&gt;MidB</title>
<path fill="none" stroke="black" stroke-dasharray="1,5" d="M59.69,-87C64.4,-87 67.75,-87 67.75,-87 67.75,-87 105.75,-87 105.75,-87 105.75,-87 110.24,-87 116.13,-87"/>
</g>
</g>
</svg>
